<svg width="12" height="14" viewBox="0 0 12 14" fill="none" xmlns="http://www.w3.org/2000/svg">
<path fill-rule="evenodd" clip-rule="evenodd" d="M11.82 3.74658L11.7267 3.57992C11.6063 3.37838 11.4365 3.21087 11.2333 3.09325L6.76 0.513252C6.55746 0.395752 6.32753 0.333665 6.09333 0.333252H5.9C5.6658 0.333665 5.43586 0.395752 5.23333 0.513252L0.76 3.09992C0.55798 3.21676 0.390173 3.38456 0.273333 3.58658L0.18 3.75325C0.0625 3.95581 0.000413333 4.18574 0 4.41992V9.58658C0.000413333 9.82078 0.0625 10.0507 0.18 10.2533L0.273333 10.4199C0.393193 10.6196 0.560326 10.7867 0.76 10.9066L5.24 13.4866C5.44153 13.6065 5.67213 13.6688 5.90666 13.6666H6.09333C6.32753 13.6662 6.55746 13.6041 6.76 13.4866L11.2333 10.8999C11.4373 10.7857 11.6058 10.6173 11.72 10.4133L11.82 10.2466C11.9361 10.0435 11.9981 9.81392 12 9.57992V4.41325C11.9996 4.17908 11.9375 3.94914 11.82 3.74658ZM5.9 1.66659H6.09333L10 3.91992L6 6.22658L2 3.91992L5.9 1.66659ZM6.66666 11.9999L10.5667 9.74658L10.6667 9.57992V5.07325L6.66666 7.38658V11.9999Z" fill="black"/>
</svg>
